<svg xmlns="http://www.w3.org/2000/svg" xmlns:xlink="http://www.w3.org/1999/xlink" width="465" height="500" viewBox="0 0 465 500">
  <defs>
    <linearGradient id="linear-gradient" x1="0.5" x2="0.5" y2="1" gradientUnits="objectBoundingBox">
      <stop offset="0" stop-color="#b90f3d"/>
      <stop offset="1" stop-color="#91495c"/>
    </linearGradient>
  </defs>
  <g id="Grupo_9" data-name="Grupo 9" transform="translate(-17)">
    <path id="Trazado_3" data-name="Trazado 3" d="M55.788,270.212Z" fill="none" stroke="#707070" stroke-width="1"/>
    <g id="Polígono_1" data-name="Polígono 1" transform="translate(482) rotate(90)" fill="#fff">
      <path d="M372.609,0a4,4,0,0,1,3.523,2.106l122.849,228.5a4,4,0,0,1,0,3.788l-122.849,228.5A4,4,0,0,1,372.609,465H127.391a4,4,0,0,1-3.523-2.106L1.018,234.394a4,4,0,0,1,0-3.788l122.85-228.5A4,4,0,0,1,127.391,0Z" stroke="none"/>
      <path d="M 127.9886474609375 4.999969482421875 L 5.676849365234375 232.5000610351562 L 127.9886779785156 460.0000305175781 L 372.0114135742188 460.0000305175781 L 494.3232421875 232.5000305175781 L 372.0113830566406 4.999969482421875 L 127.9886474609375 4.999969482421875 M 127.3909606933594 -3.0517578125e-05 L 372.6091003417969 -3.0517578125e-05 C 374.0816345214844 -3.0517578125e-05 375.4349670410156 0.8089599609375 376.1322326660156 2.1058349609375 L 498.981689453125 230.6058959960938 C 499.6175537109375 231.7886352539062 499.6175537109375 233.21142578125 498.981689453125 234.3941650390625 L 376.1322326660156 462.8941650390625 C 375.4349670410156 464.1911010742188 374.0816345214844 465.0000305175781 372.6091003417969 465.0000305175781 L 127.3908996582031 465.0000305175781 C 125.9184875488281 465.0000305175781 124.5650329589844 464.1911010742188 123.8678283691406 462.8941650390625 L 1.01837158203125 234.3941650390625 C 0.38250732421875 233.21142578125 0.38250732421875 231.7885589599609 1.01837158203125 230.6058959960938 L 123.8678283691406 2.1058349609375 C 124.5650939941406 0.8089599609375 125.9184875488281 -3.0517578125e-05 127.3909606933594 -3.0517578125e-05 Z" stroke="none" fill="rgba(151,45,74,0.92)"/>
    </g>
    <path id="Trazado_2" data-name="Trazado 2" d="M339.728,0A4.5,4.5,0,0,1,343.7,2.434L455.39,213.915a4.812,4.812,0,0,1,0,4.479L343.7,429.874a4.5,4.5,0,0,1-3.968,2.434H116.771a4.5,4.5,0,0,1-3.968-2.434L1.11,218.394a4.812,4.812,0,0,1,0-4.479L112.8,2.434A4.5,4.5,0,0,1,116.771,0Z" transform="translate(466.308 21.443) rotate(90)" fill="url(#linear-gradient)"/>
    <g id="Grupo_4" data-name="Grupo 4" transform="translate(-1.224 -0.695)">
      <path id="Trazado_6" data-name="Trazado 6" d="M5.561,2.22-1.065-.4,1.352.534,216,86" transform="translate(34.5 136.5)" fill="none" stroke="#fbfbfb" stroke-linejoin="round" stroke-width="5"/>
      <path id="Trazado_5" data-name="Trazado 5" d="M210.344,2.71l4.531-1.648.375-.3L0,86" transform="translate(250.6 136.5)" fill="none" stroke="#fbfbfb" stroke-linejoin="round" stroke-width="5"/>
      <path id="Trazado_4" data-name="Trazado 4" d="M0,0,.69,252.836l.01,3.526V251.8" transform="translate(250.15 222.061)" fill="none" stroke="#fbfbfb" stroke-linejoin="round" stroke-width="5"/>
    </g>
    <text id="C" transform="matrix(0.995, 0.105, -0.105, 0.995, 70.232, 343.578)" fill="#fff" font-size="183" font-family="CourierNewPSMT, Courier New"><tspan x="0" y="0">C</tspan></text>
    <text id="_" data-name="$" transform="matrix(0.999, -0.035, 0.035, 0.999, 311.726, 356.956)" fill="#fff" font-size="183" font-family="CourierNewPSMT, Courier New"><tspan x="0" y="0">$</tspan></text>
    <g id="Grupo_6" data-name="Grupo 6" transform="translate(588.97 635.878) rotate(45)">
      <g id="Grupo_5" data-name="Grupo 5" transform="translate(-622.377 -140.235)">
        <path id="Trazado_7" data-name="Trazado 7" d="M-690.377-87.489l54.084-50.039-8.243-7.512,31.091-7.915-8.532,28.306-8.387-7.378L-684.3-81.988" transform="translate(690.377 152.955)" fill="#fff"/>
      </g>
      <g id="Grupo_7" data-name="Grupo 7" transform="translate(-622.377 -140.235)">
        <path id="Trazado_7-2" data-name="Trazado 7" d="M-690.377-87.489l54.084-50.039-8.243-7.512,31.091-7.915-8.532,28.306-8.387-7.378L-684.3-81.988" transform="translate(690.377 152.955)" fill="#fff"/>
      </g>
    </g>
    <g id="Grupo_8" data-name="Grupo 8" transform="translate(302.329 111.55) rotate(138)">
      <g id="Grupo_5-2" data-name="Grupo 5" transform="translate(0 0)">
        <path id="Trazado_7-3" data-name="Trazado 7" d="M0,5.5,54.084,55.539l-8.243,7.512,31.091,7.915L68.4,42.66l-8.387,7.378L6.074,0" fill="#fff"/>
      </g>
      <g id="Grupo_7-2" data-name="Grupo 7" transform="translate(0)">
        <path id="Trazado_7-4" data-name="Trazado 7" d="M0,5.5,54.084,55.539l-8.243,7.512,31.091,7.915L68.4,42.66l-8.387,7.378L6.074,0" fill="#fff"/>
      </g>
    </g>
  </g>
</svg>
