<svg xmlns="http://www.w3.org/2000/svg" width="436.85" height="412.5" viewBox="0 0 436.85 412.5">
  <g id="Grupo_1" data-name="Grupo 1" transform="translate(-37.999 -50)">
    <g id="caution" transform="translate(0.424 0.25)">
      <path id="Trazado_1" data-name="Trazado 1" d="M85.57,446.25H426.43a32,32,0,0,0,28.17-47.17L284.18,82.58c-12.09-22.44-44.27-22.44-56.36,0L57.4,399.08a32,32,0,0,0,28.17,47.17Z" fill="none" stroke="#4d3800" stroke-linecap="round" stroke-linejoin="round" stroke-width="32"/>
      <path id="Trazado_2" data-name="Trazado 2" d="M250.26,195.39l5.74,122,5.73-121.95a5.74,5.74,0,0,0-5.79-6h0a5.74,5.74,0,0,0-5.68,5.95Z" fill="none" stroke="#4d3800" stroke-linecap="round" stroke-linejoin="round" stroke-width="32"/>
      <path id="Trazado_3" data-name="Trazado 3" d="M256,397.25a20,20,0,1,1,20-20,20,20,0,0,1-20,20Z" fill="#4d3800"/>
    </g>
  </g>
</svg>
