<svg xmlns="http://www.w3.org/2000/svg" width="448" height="456.148" viewBox="0 0 448 456.148">
  <g id="Grupo_1" data-name="Grupo 1" transform="translate(-32 -32)">
    <path id="Trazado_1" data-name="Trazado 1" d="M60.222,407c1.474.085,11.249,2.941,22.171,4.327,14.3,1.816,28.5,3.462,30.12,3.665,2.8.35,34.1,0,34.1,0s18.345-.894,25.818-2.072c5.145-.81,17.715-3.364,18.168-3.665,1.05-.7,8.851-2.378,8.851-2.378l-11.435-5.628-2.1-5.252L286.925,238.463,261.54,51.539l-62.086-3.846h-223.3s-46.8,117.753-24.616,205.386C-25.378,344.266,66.709,405.45,66.175,405.45A46.963,46.963,0,0,0,60.222,407Z" transform="translate(127 73)" fill="#fff"/>
    <path id="github" d="M256,32C132.3,32,32,134.9,32,261.7c0,101.5,64.2,187.5,153.2,217.9a17.561,17.561,0,0,0,3.8.4c8.3,0,11.5-6.1,11.5-11.4,0-5.5-.2-19.9-.3-39.1a102.4,102.4,0,0,1-22.6,2.7c-43.1,0-52.9-33.5-52.9-33.5-10.2-26.5-24.9-33.6-24.9-33.6-19.5-13.7-.1-14.1,1.4-14.1h.1c22.5,2,34.3,23.8,34.3,23.8,11.2,19.6,26.2,25.1,39.6,25.1a63,63,0,0,0,25.6-6c2-14.8,7.8-24.9,14.2-30.7-49.7-5.8-102-25.5-102-113.5,0-25.1,8.7-45.6,23-61.6-2.3-5.8-10-29.2,2.2-60.8a18.64,18.64,0,0,1,5-.5c8.1,0,26.4,3.1,56.6,24.1a208.21,208.21,0,0,1,112.2,0c30.2-21,48.5-24.1,56.6-24.1a18.64,18.64,0,0,1,5,.5c12.2,31.6,4.5,55,2.2,60.8,14.3,16.1,23,36.6,23,61.6,0,88.2-52.4,107.6-102.3,113.3,8,7.1,15.2,21.1,15.2,42.5,0,30.7-.3,55.5-.3,63,0,5.4,3.1,11.5,11.4,11.5a19.351,19.351,0,0,0,4-.4C415.9,449.2,480,363.1,480,261.7,480,134.9,379.7,32,256,32Z"/>
  </g>
</svg>
