<svg xmlns="http://www.w3.org/2000/svg" width="320.001" height="480.001" viewBox="0 0 320.001 480.001">
  <g id="Grupo_1" data-name="Grupo 1" transform="translate(-96 -16)">
    <g id="tip" transform="translate(0.001 0.001)">
      <path id="Trazado_1" data-name="Trazado 1" d="M304,384V360c0-29,31.54-56.43,52-76,28.84-27.57,44-64.61,44-108,0-80-63.73-144-144-144A143.6,143.6,0,0,0,112,176c0,41.84,15.81,81.39,44,108,20.35,19.21,52,46.7,52,76v24m16,96h64m-80-48h96m-48-48V256" fill="none" stroke="#003100" stroke-linecap="round" stroke-linejoin="round" stroke-width="32"/>
      <path id="Trazado_2" data-name="Trazado 2" d="M294,240s-21.51,16-38,16-38-16-38-16" fill="none" stroke="#003100" stroke-linecap="round" stroke-linejoin="round" stroke-width="32"/>
    </g>
  </g>
</svg>
