<svg id="Grupo_1" data-name="Grupo 1" xmlns="http://www.w3.org/2000/svg" xmlns:xlink="http://www.w3.org/1999/xlink" width="512" height="512" viewBox="0 0 512 512">
  <defs>
    <clipPath id="clip-path">
      <rect id="Rectángulo_1" data-name="Rectángulo 1" width="512" height="512" fill="#54a3bc"/>
    </clipPath>
  </defs>
  <path id="Trazado_1" data-name="Trazado 1" d="M343,315s-77,42-82,44-98,41-98,41L62,408l-38-8-25-9-42,9-28-19-6-22-13-52,8-26,17-25s14-60,14-64,34-38,34-38l16-27L-24,89-1,51,14,31,83,0l19-11,16-25s16,2,19,0,18,11,19,16,7,20,7,20l26-5s6,3,10,22,7,37,7,56-23,85-23,85l-16,34,15.049,17.1L189,217l21,48v50l40-18s41-12,47-16,31-6,31-6,12-8,15,0,7,32,7,32Z" transform="translate(127 73)" fill="#54a3bc"/>
  <g id="yarn" clip-path="url(#clip-path)">
    <g id="icon-512x512">
      <g id="wrapper_yarn" transform="translate(-605.589 -17.604)">
        <path id="Trazado_7" data-name="Trazado 7" d="M585.882,434.015c-2.651-19.71-20.327-33.306-43.01-33.029-33.877.416-62.3,16.931-81.158,27.894a180.227,180.227,0,0,1-19.148,9.855,139.449,139.449,0,0,0-8.692-60.369c-10.753-27.755-25.187-44.825-35.5-54.679,11.926-16.376,28.28-40.245,35.94-77.16,6.628-31.5,4.566-80.491-10.605-107.969a23.207,23.207,0,0,0-14.728-11.243c-2.651-.694-7.659-2.082-17.528.555-14.876-29-20.032-32.057-24.009-34.555a31.618,31.618,0,0,0-27.1-2.916c-12.229,4.163-22.683,15.265-32.552,34.972-1.473,2.916-2.8,5.69-3.977,8.465-18.706,1.249-48.165,7.633-73.058,33.029-3.093,3.192-9.133,5.551-15.464,7.771h.148c-12.962,4.3-18.853,14.294-26.076,32.335-10.016,25.257.294,50.1,10.458,66.2-13.846,11.657-32.257,30.253-41.979,52.042-12.078,26.923-13.4,53.291-12.962,67.585-10.309,10.269-26.218,29.559-27.986,51.209-2.357,30.253,9.279,50.793,14.435,58.287a39.047,39.047,0,0,0,4.86,5.833,32.607,32.607,0,0,0,.148,11.935c1.915,9.714,8.4,17.625,18.264,22.62,19.443,9.714,46.545,13.878,67.46,4.023,7.512,7.494,21.21,14.71,46.1,14.71h1.473c6.334,0,86.756-4.022,110.175-9.437A54.923,54.923,0,0,0,402.2,541.706c15.024-4.441,56.561-17.763,95.741-41.633,27.693-16.931,37.265-20.539,57.886-25.257,20.032-4.58,32.552-21.788,30.048-40.8Zm-35.056,20.4c-23.567,5.273-35.5,10.131-64.662,28.033-45.513,27.755-95.3,40.661-95.3,40.661s-4.125,5.833-16.055,8.465c-20.618,4.718-98.245,8.743-105.314,8.882-19,.139-30.637-4.58-33.877-11.935-9.868-22.2,14.141-31.918,14.141-31.918a61.417,61.417,0,0,1-8.4-5.833c-2.8-2.637-5.745-7.91-6.628-5.967-3.682,8.465-5.6,29.143-15.464,38.441-13.551,12.906-39.18,8.6-54.352,1.106-16.644-8.327,1.178-27.894,1.178-27.894s-8.985,5-16.2-5.273c-6.481-9.437-12.52-25.535-10.9-45.381,1.768-22.62,28.575-44.549,28.575-44.549s-4.714-33.445,10.753-67.724c13.993-31.225,51.7-56.344,51.7-56.344s-31.668-33.029-19.884-62.728c7.659-19.429,10.753-19.29,13.256-20.122,8.837-3.192,17.384-6.661,23.714-13.184,31.668-32.2,72.027-26.09,72.027-26.09s19.149-54.817,36.823-44.131c5.45,3.331,25.04,44.408,25.04,44.408s20.915-11.518,23.272-7.216c12.667,23.176,14.141,67.446,8.543,94.369-9.427,44.409-32.994,68.282-42.421,83.266-2.209,3.469,25.335,14.433,42.715,59.813,16.055,41.5,1.768,76.327,4.271,80.214.442.694.589.971.589.971s18.412,1.388,55.386-20.122c19.738-11.518,43.156-24.425,69.817-24.7,25.773-.416,27.1,28.033,7.659,32.474Z" transform="translate(514 -50.084)" fill="#54a3bc"/>
      </g>
    </g>
  </g>
</svg>
